<?xml version="1.0" encoding="UTF-8" standalone="no"?>
<!-- Created with Inkscape (http://www.inkscape.org/) -->

<svg
   xmlns:dc="http://purl.org/dc/elements/1.1/"
   xmlns:cc="http://creativecommons.org/ns#"
   xmlns:rdf="http://www.w3.org/1999/02/22-rdf-syntax-ns#"
   xmlns:svg="http://www.w3.org/2000/svg"
   xmlns="http://www.w3.org/2000/svg"
   xmlns:sodipodi="http://sodipodi.sourceforge.net/DTD/sodipodi-0.dtd"
   xmlns:inkscape="http://www.inkscape.org/namespaces/inkscape"
   width="744.09448819"
   height="1052.3622047"
   id="svg3700"
   version="1.1"
   inkscape:version="0.47 r22583"
   sodipodi:docname="gold.svg">
  <defs
     id="defs3702">
    <inkscape:perspective
       sodipodi:type="inkscape:persp3d"
       inkscape:vp_x="0 : 526.18109 : 1"
       inkscape:vp_y="0 : 1000 : 0"
       inkscape:vp_z="744.09448 : 526.18109 : 1"
       inkscape:persp3d-origin="372.04724 : 350.78739 : 1"
       id="perspective3708" />
    <inkscape:perspective
       id="perspective3677"
       inkscape:persp3d-origin="0.5 : 0.33333333 : 1"
       inkscape:vp_z="1 : 0.5 : 1"
       inkscape:vp_y="0 : 1000 : 0"
       inkscape:vp_x="0 : 0.5 : 1"
       sodipodi:type="inkscape:persp3d" />
  </defs>
  <sodipodi:namedview
     id="base"
     pagecolor="#ffffff"
     bordercolor="#666666"
     borderopacity="1.0"
     inkscape:pageopacity="0.0"
     inkscape:pageshadow="2"
     inkscape:zoom="2.219696"
     inkscape:cx="294.28571"
     inkscape:cy="580"
     inkscape:document-units="px"
     inkscape:current-layer="layer1"
     showgrid="false"
     inkscape:window-width="1243"
     inkscape:window-height="771"
     inkscape:window-x="27"
     inkscape:window-y="0"
     inkscape:window-maximized="1" />
  <metadata
     id="metadata3705">
    <rdf:RDF>
      <cc:Work
         rdf:about="">
        <dc:format>image/svg+xml</dc:format>
        <dc:type
           rdf:resource="http://purl.org/dc/dcmitype/StillImage" />
        <dc:title />
      </cc:Work>
    </rdf:RDF>
  </metadata>
  <g
     inkscape:label="Layer 1"
     inkscape:groupmode="layer"
     id="layer1">
    <path
       id="path26"
       style="fill:#636663;fill-opacity:1;fill-rule:nonzero;stroke:none"
       d="m 315.84677,574.16531 c 9.82376,2.44125 17.24375,2.22625 25.99376,-3.00375 -9.70501,-15.63625 -31.6575,-21.0925 -47.555,-11.825 5.28125,8.71875 11.7375,12.385 21.56125,14.82875" />
    <path
       id="path28"
       style="fill:#636663;fill-opacity:1;fill-rule:nonzero;stroke:none"
       d="m 349.22053,560.33781 c 10.0825,-0.88875 17.03125,-3.50875 23.59874,-11.3025 -14.26749,-11.625 -36.79874,-9.6375 -48.81249,4.3025 7.83125,6.525 15.13,7.89 25.21375,7" />
    <path
       id="path30"
       style="fill:#636663;fill-opacity:1;fill-rule:nonzero;stroke:none"
       d="m 376.27303,536.40031 c 9.24625,-4.12375 14.95999,-8.865 18.63375,-18.3725 -17.27375,-6.345 -37.93,2.86875 -44.75126,19.96 9.52875,3.62 16.87375,2.535 26.11751,-1.5875" />
    <path
       id="path32"
       style="fill:#636663;fill-opacity:1;fill-rule:nonzero;stroke:none"
       d="m 394.06052,504.95656 c 7.39876,-6.90875 11.25875,-13.25125 11.63625,-23.4375 -18.39874,-0.37625 -34.93125,15.0625 -35.81625,33.44375 10.18876,0.32 16.78126,-3.09625 24.18,-10.00625" />
    <path
       id="path34"
       style="fill:#636663;fill-opacity:1;fill-rule:nonzero;stroke:none"
       d="m 400.63928,469.43656 c 4.74625,-8.94125 6.33249,-16.19625 3.37375,-25.95 -17.51875,5.635 -28.12375,25.615 -22.97625,43.28125 9.73625,-3.01375 14.85625,-8.39 19.6025,-17.33125" />
    <path
       id="path36"
       style="fill:#636663;fill-opacity:1;fill-rule:nonzero;stroke:none"
       d="m 395.29677,433.70906 c 1.57875,-10 0.71501,-17.37375 -5.25874,-25.63375 -14.72875,11.03125 -18.25376,33.37625 -7.63376,48.405 8.22625,-6.02125 11.31625,-12.77125 12.8925,-22.77125" />
    <path
       id="path38"
       style="fill:#636663;fill-opacity:1;fill-rule:nonzero;stroke:none"
       d="m 272.72553,574.16531 c -9.8225,2.44125 -17.24625,2.22625 -25.99375,-3.00375 9.70625,-15.63625 31.6575,-21.0925 47.55374,-11.825 -5.28,8.71875 -11.73624,12.385 -21.55999,14.82875" />
    <path
       id="path40"
       style="fill:#636663;fill-opacity:1;fill-rule:nonzero;stroke:none"
       d="m 296.11428,579.84531 c 2.41499,4.42375 4.99249,7.07375 9.85875,8.51875 2.4625,-8.82625 -2.93375,-18.71 -11.68625,-21.415 -1.41625,4.87125 -0.58625,8.4725 1.8275,12.89625" />
    <path
       id="path42"
       style="fill:#636663;fill-opacity:1;fill-rule:nonzero;stroke:none"
       d="m 292.46677,579.84781 c -2.4125,4.42375 -4.98999,7.0725 -9.85499,8.52125 -2.465,-8.82375 2.92374,-18.71 11.67499,-21.42 1.42125,4.87125 0.59126,8.4725 -1.82,12.89875" />
    <path
       id="path44"
       style="fill:#636663;fill-opacity:1;fill-rule:nonzero;stroke:none"
       d="m 239.35178,560.33781 c -10.0825,-0.88875 -17.03,-3.50875 -23.6,-11.3025 14.2675,-11.625 36.8,-9.6375 48.81375,4.3025 -7.83125,6.525 -15.13,7.89 -25.21375,7" />
    <path
       id="path46"
       style="fill:#636663;fill-opacity:1;fill-rule:nonzero;stroke:none"
       d="m 212.29803,536.40031 c -9.24513,-4.12375 -14.9605,-8.865 -18.63338,-18.3725 17.27463,-6.345 37.93213,2.86875 44.75338,19.96 -9.52875,3.62 -16.875,2.535 -26.12,-1.5875" />
    <path
       id="path48"
       style="fill:#636663;fill-opacity:1;fill-rule:nonzero;stroke:none"
       d="m 194.5119,504.95656 c -7.399,-6.90875 -11.25887,-13.25125 -11.63725,-23.4375 18.3985,-0.37625 34.93213,15.0625 35.81713,33.44375 -10.19,0.32 -16.78,-3.09625 -24.17988,-10.00625" />
    <path
       id="path50"
       style="fill:#636663;fill-opacity:1;fill-rule:nonzero;stroke:none"
       d="m 187.93228,469.43656 c -4.74613,-8.94125 -6.332,-16.19625 -3.373,-25.95 17.5185,5.635 28.125,25.615 22.9775,43.28125 -9.73875,-3.01375 -14.85838,-8.39 -19.6045,-17.33125" />
    <path
       id="path52"
       style="fill:#636663;fill-opacity:1;fill-rule:nonzero;stroke:none"
       d="m 193.27403,433.70906 c -1.57613,-10 -0.71425,-17.37375 5.25987,-25.63375 14.73038,11.03125 18.25288,33.37625 7.63413,48.405 -8.226,-6.02125 -11.31588,-12.77125 -12.894,-22.77125" />
    <path
       id="path54"
       style="fill:#636663;fill-opacity:1;fill-rule:nonzero;stroke:none"
       d="m 379.59552,425.91156 c -1.8825,-3.67875 -3.99875,-7.23375 -6.3325,-10.64 l -3.5125,2.4075 c 2.23125,3.25375 4.255,6.6525 6.05375,10.17375 l 3.79125,-1.94125 m -13.9675,-20.38875 c -2.745,-3.07375 -5.6875,-5.97875 -8.8175,-8.69125 l -2.79,3.2175 c 2.9925,2.59375 5.80625,5.36875 8.43,8.31125 l 3.1775,-2.8375 m -18.67875,-16.18125 c -3.42125,-2.26625 -7.00625,-4.32625 -10.7425,-6.15625 l -1.87375,3.825 c 3.57,1.7475 6.995,3.715 10.265,5.88125 l 2.35125,-3.55 m -22.1925,-10.875 c -3.86625,-1.3075 -7.855,-2.38375 -11.95625,-3.2125 l -0.84,4.175 c 3.9225,0.79125 7.73625,1.82 11.43125,3.07 l 1.365,-4.0325 m -48.90874,-3.46875 c -4.08125,0.7725 -8.08875,1.805 -11.99875,3.08375 l 1.3225,4.0475 c 3.7375,-1.2225 7.56625,-2.20875 11.4675,-2.94625 l -0.79125,-4.185 m -23.5,7.68 c -3.73375,1.77875 -7.34625,3.7925 -10.81625,6.0275 l 2.30625,3.58 c 3.31625,-2.1375 6.7725,-4.0625 10.34125,-5.7625 l -1.83125,-3.845 m -20.775,13.38375 c -3.1525,2.655 -6.14,5.51625 -8.9375,8.56625 l 3.1375,2.8775 c 2.675,-2.915 5.53,-5.64875 8.54375,-8.18875 l -2.74375,-3.255 m -16.70375,18.2025 c -2.36375,3.35625 -4.525,6.87875 -6.46,10.55625 l 3.7675,1.9825 c 1.84875,-3.51375 3.91375,-6.88 6.1725,-10.08625 l -3.48,-2.4525" />
    <path
       id="path58"
       style="fill:#ffff00;fill-opacity:1;fill-rule:nonzero;stroke:none"
       d="m 293.73302,356.35531 4.15126,8.41125 9.28125,1.35 -6.71625,6.545 1.58625,9.24625 -8.3025,-4.365 -8.30125,4.365 1.585,-9.24625 -6.715,-6.545 9.28125,-1.35 4.15,-8.41125" />
    <path
       sodipodi:type="arc"
       style="fill:#ffff00;fill-opacity:1;stroke:none"
       id="path4540"
       sodipodi:cx="308.82608"
       sodipodi:cy="480.43701"
       sodipodi:rx="70.955658"
       sodipodi:ry="69.15361"
       d="m 379.78174,480.43701 a 70.955658,69.15361 0 1 1 -141.91132,0 70.955658,69.15361 0 1 1 141.91132,0 z"
       transform="matrix(1.162698,0,0,1.1929963,-64.757049,-104.3406)" />
  </g>
</svg>
